<svg xmlns="http://www.w3.org/2000/svg" width="117" height="26" viewBox="0 0 117 26" fill="none">
    <path
        d="M12.0003 0.84214C7.08512 0.84214 2.41766 0.423454 0.634874 4.80475C-0.101523 6.61431 0.00541729 8.96439 0.00541729 12.3294C0.00541729 15.2823 -0.0934008 18.0575 0.634874 19.8528C2.4136 24.2367 7.11896 23.8167 11.9976 23.8167C16.7043 23.8167 21.5572 24.286 23.3617 19.8528C24.0994 18.0251 23.9911 15.71 23.9911 12.3294C23.9911 7.84185 24.2497 4.94475 21.9769 2.76965C19.6756 0.566041 16.5635 0.84214 11.9949 0.84214H12.0003ZM10.9255 2.91224C21.1782 2.89668 22.4831 1.80525 21.763 16.9674C21.5071 22.3299 17.2431 21.7414 12.0016 21.7414C2.44473 21.7414 2.16994 21.4796 2.16994 12.3243C2.16994 3.0626 2.92799 2.91742 10.9255 2.90965V2.91224ZM18.4032 4.81901C17.6086 4.81901 16.9642 5.43602 16.9642 6.19692C16.9642 6.95781 17.6086 7.57482 18.4032 7.57482C19.1978 7.57482 19.8421 6.95781 19.8421 6.19692C19.8421 5.43602 19.1978 4.81901 18.4032 4.81901ZM12.0003 6.43024C8.59852 6.43024 5.84109 9.07198 5.84109 12.3294C5.84109 15.5869 8.59852 18.2273 12.0003 18.2273C15.4021 18.2273 18.1581 15.5869 18.1581 12.3294C18.1581 9.07198 15.4021 6.43024 12.0003 6.43024ZM12.0003 8.50034C17.2864 8.50034 17.2932 16.1585 12.0003 16.1585C6.71557 16.1585 6.70744 8.50034 12.0003 8.50034Z"
        fill="white" />
    <path
        d="M51.6026 13.5876L51.678 13.8214L53.9076 20.7394L53.9077 20.7395C53.9232 20.7877 53.9621 20.8276 54.0236 20.8455C54.0854 20.8635 54.1491 20.8524 54.1991 20.813L54.1996 20.8126L57.4107 18.2871L57.4108 18.287C57.921 17.886 58.6424 17.8666 59.1743 18.2391L59.1744 18.2392L64.9659 22.2958L64.9661 22.296C65.0205 22.3342 65.087 22.3408 65.1483 22.318C65.2092 22.2953 65.2435 22.2526 65.2539 22.2042L65.2539 22.204L69.4964 2.51543L51.6026 13.5876ZM51.6026 13.5876L51.3715 13.5043M51.6026 13.5876L51.3715 13.5043M51.3715 13.5043L45.6116 11.4303C45.6114 11.4302 45.6112 11.4301 45.6111 11.4301C45.5627 11.4125 45.5382 11.3883 45.5246 11.3683C45.5093 11.3459 45.5002 11.3176 45.5 11.2869C45.4998 11.2562 45.5086 11.228 45.5234 11.2058C45.5366 11.186 45.5606 11.1617 45.6092 11.1436L45.6092 11.1436L69.2505 2.34471L69.2509 2.34457M51.3715 13.5043L69.2509 2.34457M69.2509 2.34457C69.3237 2.31741 69.3927 2.33364 69.4428 2.37461M69.2509 2.34457L69.4428 2.37461M52.8166 12.441L52.817 12.4407L64.0752 5.75103L64.0757 5.7507C64.4224 5.54533 64.7943 5.67926 64.9824 5.91755C65.0753 6.03517 65.1387 6.19352 65.1317 6.37079C65.1244 6.55743 65.0401 6.72835 64.9008 6.85303L55.6102 15.1849C55.3694 15.4012 55.2173 15.6873 55.1743 15.9941L54.8579 18.2563L52.8166 12.441ZM52.8166 12.441C52.1962 12.8104 51.891 13.5446 52.0977 14.2426C52.0977 14.2427 52.0977 14.2428 52.0978 14.2429L53.3148 18.3688L53.3149 18.369M52.8166 12.441L53.3149 18.369M53.3149 18.369C53.4366 18.7806 53.8149 18.951 54.1297 18.9292M53.3149 18.369L54.1297 18.9292M69.4428 2.37461C69.4917 2.41466 69.5075 2.4637 69.4965 2.5152L69.4428 2.37461ZM54.1297 18.9292C54.4454 18.9074 54.7982 18.6849 54.8578 18.2569L54.1297 18.9292ZM64.2335 6.1082L64.2333 6.10843C64.2335 6.10823 64.2337 6.10804 64.2339 6.10785L64.2335 6.1082Z"
        stroke="white" />
    <path
        d="M93.8619 20.0536L93.944 19.8089L93.792 19.6002C92.3488 17.6182 91.5 15.1776 91.5 12.5429C91.5 5.90149 96.9002 0.5 103.54 0.5H103.546C110.186 0.5 115.586 5.90302 115.586 12.5429C115.586 19.1827 110.186 24.5857 103.546 24.5857C101.096 24.5857 98.8258 23.8574 96.922 22.5962L96.7221 22.4637L96.4936 22.5368L92.6127 23.7774L93.8619 20.0536ZM111.316 17.879L111.316 17.8787C111.481 17.4102 111.566 16.9725 111.596 16.6224C111.611 16.4479 111.614 16.288 111.604 16.1521C111.596 16.0419 111.575 15.8689 111.494 15.7256L111.494 15.7256L111.492 15.7223C111.374 15.5163 111.182 15.4003 111.053 15.3302C110.976 15.2879 110.871 15.2372 110.766 15.1866C110.703 15.156 110.64 15.1255 110.583 15.0969L110.581 15.0961C110.396 15.0039 109.854 14.7356 109.315 14.4754C108.801 14.2269 108.24 13.9613 108.03 13.8869C107.8 13.8013 107.531 13.757 107.253 13.8295C106.965 13.9043 106.731 14.0869 106.552 14.3399C106.503 14.4085 106.455 14.4762 106.407 14.5427C106.102 14.9723 105.833 15.3504 105.614 15.5862C105.593 15.6087 105.558 15.6296 105.5 15.6374C105.439 15.6457 105.363 15.6371 105.286 15.6055L105.095 16.0673L105.287 15.6059C105.254 15.592 105.216 15.5767 105.174 15.5596C104.706 15.3708 103.708 14.9677 102.486 13.8799L102.486 13.8799C101.463 12.9693 100.759 11.8247 100.55 11.4723C100.537 11.4483 100.53 11.4318 100.527 11.4223C100.527 11.422 100.527 11.4217 100.527 11.4214C100.531 11.4138 100.538 11.4032 100.548 11.3886C100.571 11.3565 100.599 11.3245 100.644 11.2715L100.647 11.2676L100.647 11.2677L100.655 11.2579C100.735 11.1584 100.815 11.0713 100.903 10.9774C100.917 10.9629 100.931 10.948 100.945 10.9328C101.021 10.8527 101.105 10.7638 101.189 10.6661C101.202 10.6517 101.214 10.6375 101.226 10.6234C101.39 10.4354 101.528 10.2777 101.667 9.98303C101.903 9.51418 101.711 9.06591 101.616 8.86856C101.558 8.7466 101.197 7.8714 100.877 7.09467C100.732 6.74263 100.595 6.41082 100.499 6.17853L100.498 6.17746C100.368 5.86557 100.213 5.59551 99.9594 5.42973C99.7147 5.26986 99.4483 5.25898 99.2825 5.25221C99.2761 5.25195 99.2698 5.25169 99.2637 5.25143C99.2531 5.2509 99.2422 5.25035 99.2311 5.24978C99.1156 5.24392 98.975 5.23679 98.8205 5.23679C98.2676 5.23679 97.6131 5.39563 97.1808 5.83686L97.1807 5.83696C97.1704 5.84748 97.1596 5.85844 97.1485 5.86982C96.7373 6.28814 95.7555 7.28714 95.7555 9.23939C95.7555 10.2519 96.1216 11.2189 96.4878 11.941C96.838 12.6313 97.2091 13.1375 97.324 13.294C97.3304 13.3029 97.3361 13.3106 97.3409 13.3172L97.3408 13.3172L97.3471 13.3255C97.3471 13.3254 97.3471 13.3255 97.3472 13.3256C97.3479 13.3266 97.3515 13.3315 97.3597 13.3431L97.3937 13.3921C97.3991 13.3999 97.4049 13.4083 97.411 13.4172C97.4365 13.4541 97.4683 13.5001 97.5052 13.553C97.5972 13.6848 97.7228 13.8616 97.88 14.0718C98.1942 14.4917 98.6349 15.0448 99.1884 15.6396C100.291 16.824 101.863 18.1984 103.798 19.0003C105.256 19.6044 106.231 19.8916 106.943 20.0044C107.676 20.1207 108.118 20.0498 108.487 19.9712L108.488 19.9709C109.032 19.8534 109.631 19.5982 110.14 19.254C110.639 18.916 111.114 18.4496 111.316 17.879Z"
        stroke="white" />
</svg>