<svg width="218" height="170" viewBox="0 0 218 170" fill="none" xmlns="http://www.w3.org/2000/svg">
<line x1="75.9258" y1="84.4536" x2="86.7119" y2="44.199" stroke="#444444" stroke-width="0.775484"/>
<line y1="-0.387742" x2="41.6746" y2="-0.387742" transform="matrix(-0.965926 -0.258819 -0.258819 0.965926 126.67 55.4731)" stroke="#444444" stroke-width="0.775484"/>
<circle cx="86.7142" cy="44.7142" r="2.71419" fill="#C4C4C4"/>
<g filter="url(#filter0_d_97_6761)">
<path d="M31.8774 118.411C29.736 114.702 31.0068 109.959 34.7159 107.817L64.2409 90.7711L100.482 69.8474L136.735 48.9168L166.248 31.8775C169.957 29.7361 174.7 31.0069 176.841 34.716L186.573 51.5723C188.714 55.2814 187.444 60.0242 183.735 62.1657L52.2028 138.106C48.4937 140.247 43.7509 138.976 41.6095 135.267L31.8774 118.411Z" fill="white"/>
<path d="M31.8774 118.411C29.736 114.702 31.0068 109.959 34.7159 107.817L64.2409 90.7711L100.482 69.8474L136.735 48.9168L166.248 31.8775C169.957 29.7361 174.7 31.0069 176.841 34.716L186.573 51.5723C188.714 55.2814 187.444 60.0242 183.735 62.1657L52.2028 138.106C48.4937 140.247 43.7509 138.976 41.6095 135.267L31.8774 118.411Z" fill="#C93A48"/>
</g>
<path d="M55.1171 123.728L52.5546 113.762L57.5107 122.346L59.9633 120.93L53.7788 110.218L49.8339 112.496L52.1716 121.39L45.6822 114.893L41.6929 117.196L47.8774 127.908L50.33 126.492L45.3825 117.922L52.7384 125.101L55.1171 123.728ZM65.6209 117.664C68.3986 116.06 70.098 114.192 68.426 111.297C66.7541 108.401 64.2699 108.909 61.4922 110.513L60.4875 111.093L58.4317 107.532L55.9052 108.991L62.0896 119.703L65.6209 117.664ZM61.7159 113.22L62.7944 112.598C63.9764 111.915 65.0523 111.629 65.7517 112.841C66.4342 114.023 65.6484 114.811 64.4664 115.494L63.3878 116.116L61.7159 113.22ZM74.279 112.665L68.0945 101.953L65.568 103.412L71.7525 114.124L74.279 112.665ZM78.2804 103.223C76.9668 100.948 77.5845 99.0154 79.1655 98.1026C80.7464 97.1899 82.729 97.6212 84.0427 99.8966C85.3563 102.172 84.7386 104.105 83.1577 105.017C81.5767 105.93 79.5941 105.499 78.2804 103.223ZM86.7169 98.3526C84.7891 95.0134 81.2427 94.1256 77.9627 96.0194C74.6679 97.9216 73.6783 101.428 75.6062 104.767C77.534 108.107 81.0656 109.003 84.3604 107.101C87.6405 105.207 88.6448 101.692 86.7169 98.3526ZM93.2694 101.701L95.8107 100.234L90.9058 91.7381L94.3483 89.7505L93.0688 87.5342L83.6571 92.9681L84.9367 95.1843L88.3645 93.2053L93.2694 101.701ZM106.618 93.9941L109.632 92.2539L102.306 88.8795L103.285 81.6359L100.36 83.3249L99.6122 90.3559L99.5975 90.3644L96.7398 85.4148L94.2133 86.8735L100.398 97.5853L102.924 96.1266L99.9301 90.9406L99.9449 90.9321L106.618 93.9941ZM104.963 80.6673L111.147 91.3792L113.674 89.9205L111.533 86.212L113.128 85.2907C115.906 83.687 117.588 81.7898 115.959 78.9678C114.338 76.1605 111.863 76.6837 109.085 78.2874L104.963 80.6673ZM110.387 80.3723C111.569 79.6899 112.636 79.3889 113.285 80.5118C113.933 81.6347 113.156 82.438 111.974 83.1205L110.304 84.0844L108.718 81.3362L110.387 80.3723ZM124.764 83.5175C127.542 81.9138 129.241 80.0461 127.569 77.1502C125.897 74.2544 123.413 74.7627 120.635 76.3664L119.631 76.9465L117.575 73.3857L115.048 74.8444L121.233 85.5562L124.764 83.5175ZM120.859 79.0741L121.938 78.4513C123.12 77.7689 124.195 77.4827 124.895 78.6942C125.577 79.8762 124.791 80.6648 123.609 81.3472L122.531 81.97L120.859 79.0741ZM133.422 78.5187L127.238 67.8069L124.711 69.2656L130.896 79.9774L133.422 78.5187ZM144.104 72.3514L137.92 61.6396L130.399 65.9815L132.377 69.6463C133.736 72.1712 134.971 74.65 133.597 75.4433L133.271 75.631L134.56 77.862L135.313 77.427C138.017 75.8659 137.056 72.4611 135.263 69.0833L134.081 66.8306L136.681 65.3293L141.578 73.8101L144.104 72.3514ZM146.238 71.1197L148.676 69.7122L149.217 60.1406L153.226 67.0848L155.664 65.6773L149.48 54.9655L147.042 56.373L146.5 65.9445L142.491 59.0003L140.053 60.4078L146.238 71.1197ZM162.732 56.2779C163.345 58.0908 162.451 59.2375 161.342 59.8773C159.806 60.7644 157.939 60.2268 156.634 57.9662C155.372 55.7795 155.828 53.8412 157.321 52.9797C158.517 52.2887 159.963 52.3013 161.088 53.602L163.57 52.1689C161.808 49.9357 158.881 49.3012 156.207 50.8452C152.853 52.7816 152.006 56.1267 153.96 59.5102C155.939 62.938 159.191 63.8969 162.53 61.9691C165.234 60.408 166.248 57.5573 165.214 54.8448L162.732 56.2779ZM168.876 58.0493L172.851 55.7546C175.628 54.1509 177.328 52.2833 175.656 49.3874C173.984 46.4915 171.5 46.9998 168.722 48.6035L167.274 49.4395L165.218 45.8787L162.692 47.3374L168.876 58.0493ZM170.174 54.463L168.502 51.5671L170.024 50.6885C171.206 50.006 172.282 49.7198 172.982 50.9314C173.664 52.1134 172.878 52.9019 171.696 53.5844L170.174 54.463Z" fill="white"/>
<defs>
<filter id="filter0_d_97_6761" x="0.837158" y="0.837158" width="216.776" height="168.309" filterUnits="userSpaceOnUse" color-interpolation-filters="sRGB">
<feFlood flood-opacity="0" result="BackgroundImageFix"/>
<feColorMatrix in="SourceAlpha" type="matrix" values="0 0 0 0 0 0 0 0 0 0 0 0 0 0 0 0 0 0 127 0" result="hardAlpha"/>
<feOffset/>
<feGaussianBlur stdDeviation="15"/>
<feColorMatrix type="matrix" values="0 0 0 0 0.741176 0 0 0 0 0.176471 0 0 0 0 0.262745 0 0 0 1 0"/>
<feBlend mode="normal" in2="BackgroundImageFix" result="effect1_dropShadow_97_6761"/>
<feBlend mode="normal" in="SourceGraphic" in2="effect1_dropShadow_97_6761" result="shape"/>
</filter>
</defs>
</svg>
